<svg width="69" height="38" viewBox="0 0 69 38" fill="none" xmlns="http://www.w3.org/2000/svg">
<path d="M27.7175 31.4328C19.2791 23.9794 19.5191 13.8013 27.6303 6.62895C22.2946 3.98769 12.9537 6.31941 6.68562 11.942C4.58898 11.0277 2.46234 10.1011 0.234823 9.1297C2.56867 6.29905 5.59231 4.06711 9.4148 2.49905C17.1798 -0.687981 25.0974 -0.830532 33.0614 2.09787C33.9584 2.42777 34.6155 2.45832 35.5424 2.10194C47.866 -2.62667 61.9973 1.19573 68.3445 9.14396C66.226 10.0726 64.1075 10.9992 61.9482 11.9461C56.6289 6.48437 49.7118 4.65768 40.7609 6.45382C44.9487 10.152 47.1762 14.2819 47.1817 18.9576C47.1871 23.6556 45.006 27.8059 40.8999 31.388C46.3365 33.1597 56.0154 32.5956 61.9182 26.0403C64.0312 26.9628 66.1551 27.8894 68.3854 28.8608C66.7195 30.9644 64.6556 32.6934 62.1118 34.068C53.6543 38.6377 44.6952 39.1998 35.2562 35.8723C34.7191 35.6829 33.8384 35.7093 33.2958 35.9069C21.6975 40.1447 8.44419 37.644 1.02277 29.7772C0.769209 29.5063 0.53746 29.2253 0.22937 28.875C2.42962 27.9138 4.55353 26.9832 6.7456 26.0261C9.65201 29.2497 13.5099 31.3167 18.5784 32.0539C21.3322 32.4551 25.4546 32.2067 27.7148 31.4308L27.7175 31.4328ZM34.3264 28.0788C41.7588 22.7352 40.7718 13.5467 34.2746 9.30891C27.3849 14.0457 27.374 23.1465 34.3264 28.0788Z" fill="white"/>
</svg>
