<svg width="81" height="64" viewBox="0 0 81 64" fill="none" xmlns="http://www.w3.org/2000/svg">
<g clip-path="url(#clip0_1_166)">
<path d="M80.7308 53.2635H78.3674V45.2751H80.7308V53.2635Z" fill="white"/>
<path d="M40.4788 0C41.277 1.02171 42.04 1.99783 42.8011 2.97469C45.3472 6.24237 47.8913 9.5108 50.4454 12.7755C50.6051 12.9788 50.6332 13.1275 50.4635 13.3465C47.1935 17.5372 43.9376 21.7339 40.6776 25.9284C40.6194 26.0032 40.5501 26.0727 40.4578 26.1766C40.1254 25.7468 39.8112 25.3395 39.4969 24.9329C36.5151 21.0777 33.5343 17.2218 30.5484 13.3682C30.4088 13.1881 30.3295 13.046 30.4972 12.8308C33.7712 8.62736 37.0332 4.41869 40.2971 0.211517C40.3383 0.158451 40.3855 0.108375 40.4788 0.00074741V0Z" fill="white"/>
<path d="M40.5431 26.2558C40.7419 26.2483 40.8865 26.2378 41.03 26.2378C47.4786 26.2371 53.9263 26.2386 60.3749 26.2326C60.7112 26.2326 60.907 26.2976 61.0837 26.5271C64.2844 30.6745 67.4992 34.8159 70.7099 38.9595C70.7832 39.0537 70.8465 39.1523 70.9569 39.3078H70.3655C63.9842 39.3078 57.6029 39.3048 51.2215 39.3145C50.8179 39.3145 50.6071 39.2196 50.4063 38.9603C47.2106 34.839 43.9998 30.7238 40.7931 26.6071C40.7118 26.5032 40.6415 26.394 40.5431 26.2558Z" fill="white"/>
<path d="M40.4036 26.2535C40.2911 26.4097 40.2168 26.5189 40.1355 26.6242C36.9489 30.7365 33.7572 34.8465 30.5806 38.9632C30.3808 39.2226 30.1599 39.3153 29.7583 39.3145C23.3749 39.3048 16.9916 39.3078 10.6082 39.3078H10.038C10.1374 39.1628 10.2026 39.0544 10.2809 38.9528C13.4847 34.8189 16.6904 30.6857 19.8921 26.551C20.0397 26.3612 20.1732 26.2296 20.5306 26.2304C27.0475 26.2408 33.5644 26.2378 40.0813 26.2386C40.1636 26.2386 40.247 26.2461 40.4016 26.2535H40.4036Z" fill="white"/>
<path d="M17.2546 62.3124C16.1974 60.9917 15.1874 59.7286 14.1764 58.4654C14.1392 58.4722 14.1021 58.4781 14.0659 58.4849V63.8782H11.6785V55.9706C12.6473 55.9706 13.6111 55.9609 14.574 55.9825C14.6995 55.9855 14.8491 56.1395 14.9354 56.2471C15.6954 57.1956 16.4444 58.1493 17.2416 59.159C17.361 59.02 17.4504 58.9243 17.5287 58.8234C18.1964 57.9632 18.87 57.1051 19.5216 56.2374C19.6712 56.0386 19.8379 55.9564 20.1491 55.9624C21.0316 55.978 21.9141 55.9676 22.8328 55.9676V63.8722H20.4533V58.5006C20.4122 58.4893 20.371 58.4789 20.3298 58.4677C19.3228 59.7271 18.3158 60.9857 17.2556 62.3116L17.2546 62.3124Z" fill="white"/>
<path d="M9.31206 53.2141V47.8313C9.27692 47.8216 9.24178 47.8118 9.20563 47.8029C8.19663 49.0645 7.18661 50.3261 6.12741 51.6505C5.06719 50.3463 4.03811 49.0809 3.00902 47.8156C2.9789 47.8193 2.94878 47.8231 2.91866 47.826V53.2209H0.547241V45.3185C1.51509 45.3185 2.46285 45.3065 3.40961 45.3312C3.55117 45.3349 3.72486 45.4919 3.81723 45.607C4.49994 46.4613 5.16458 47.3238 5.83725 48.1826C5.91757 48.2857 6.00994 48.3836 6.13845 48.5316C6.65751 47.8417 7.13842 47.1937 7.63138 46.551C7.94362 46.1436 8.15546 45.595 8.63236 45.3828C9.09118 45.178 9.83212 45.3222 10.4496 45.3162C10.8472 45.3125 11.2437 45.3162 11.6734 45.3162V53.2156H9.31306L9.31206 53.2141Z" fill="white"/>
<path d="M52.0087 49.0555C52.4384 49.288 52.9233 49.4621 53.2456 49.7409C54.3249 50.6707 53.7877 52.4391 52.2858 52.9406C51.8541 53.0848 51.3591 53.188 50.8902 53.1962C49.1071 53.2253 47.3231 53.2081 45.4998 53.2081V45.3155C45.7528 45.3155 45.9827 45.314 46.2116 45.3155C47.7819 45.3282 49.3571 45.2856 50.9214 45.3686C53.1271 45.4859 53.7586 46.6631 53.348 47.9867C53.2054 48.4471 52.9384 48.6265 52.0087 49.0555ZM47.8341 51.7903C48.7447 51.7604 49.6091 51.7619 50.4625 51.6931C50.9876 51.6513 51.2225 51.3419 51.2426 50.8613C51.2617 50.4046 51.0448 50.0571 50.5549 50.0279C49.6553 49.9741 48.7457 50.013 47.8341 50.013V51.7911V51.7903ZM47.8441 48.4942C48.6152 48.4942 49.332 48.5152 50.0449 48.4875C50.6533 48.4643 51.0047 48.1437 51.0388 47.6624C51.072 47.1967 50.821 46.8925 50.2497 46.8634C49.4595 46.823 48.6624 46.8529 47.8431 46.8529V48.4942H47.8441Z" fill="white"/>
<path d="M55.8097 63.8744H53.4423C53.4303 63.7302 53.4122 63.6091 53.4122 63.488C53.4102 61.1247 53.4193 58.7614 53.4012 56.3988C53.3982 56.0625 53.5106 55.9482 53.9835 55.9609C55.5015 55.9997 57.0256 55.9586 58.5386 56.0348C60.3538 56.126 61.2996 56.9033 61.3839 58.2584C61.402 58.5544 61.3989 58.8601 61.3236 59.1493C61.1068 59.9804 60.6209 60.3594 59.2705 60.8018C60.1169 61.8101 60.9592 62.8154 61.8658 63.8946C60.908 63.8946 60.0646 63.9043 59.2223 63.8834C59.1058 63.8804 58.9653 63.7436 58.886 63.6457C58.3378 62.9633 57.8037 62.275 57.2635 61.5896C56.965 61.2099 56.4801 61.0527 55.8087 61.118V63.8759L55.8097 63.8744ZM55.8288 59.5522C56.6079 59.5253 57.3258 59.5327 58.0316 59.4677C58.6912 59.4072 58.9984 59.0342 58.9773 58.4535C58.9583 57.9273 58.6169 57.5626 57.9994 57.5282C57.2906 57.4886 56.5748 57.5192 55.8298 57.5192V59.5522H55.8288Z" fill="white"/>
<path d="M33.7351 60.0357C33.6648 60.4648 33.6216 60.9872 33.4881 61.4969C33.0774 63.0695 31.7572 63.9223 29.6067 63.9933C28.9621 64.0142 28.2985 63.9858 27.6659 63.8931C25.9792 63.6457 25.0636 62.8012 24.7062 61.5963C24.3789 60.4894 24.3829 59.3728 24.7072 58.2659C25.1058 56.9071 26.157 56.1186 28.0254 55.9452C28.9641 55.8585 29.9801 55.8913 30.8928 56.0662C32.6608 56.4056 33.3284 57.4736 33.5794 58.7158C33.6608 59.1202 33.6768 59.532 33.734 60.035L33.7351 60.0357ZM26.8557 59.887C26.9511 60.4117 26.9842 60.9379 27.1529 61.4394C27.3768 62.1046 27.9802 62.3751 29.0083 62.3781C30.0846 62.3811 30.6869 62.121 30.9219 61.4461C31.2713 60.4453 31.2693 59.4244 30.9219 58.4228C30.694 57.7681 30.1147 57.5102 29.1016 57.5028C28.0173 57.4945 27.423 57.7464 27.175 58.4183C27.0003 58.8922 26.9581 59.3937 26.8567 59.8863L26.8557 59.887Z" fill="white"/>
<path d="M51.852 60.0171C51.7626 60.5156 51.7185 61.0649 51.5588 61.5956C51.098 63.1278 49.836 63.917 47.7276 63.9925C47.0831 64.0157 46.4194 63.9873 45.7869 63.8961C44.1494 63.6584 43.2107 62.8572 42.8462 61.6778C42.4888 60.5238 42.4858 59.3578 42.8442 58.2038C43.2418 56.9265 44.2849 56.0999 46.072 55.9496C46.9375 55.8771 47.8511 55.8801 48.7035 56.002C50.4685 56.2538 51.3109 57.2075 51.6241 58.4505C51.7496 58.949 51.7747 59.4617 51.853 60.0171H51.852ZM49.3059 60.0619C49.2467 59.5559 49.2075 59.1732 49.1543 58.7913C49.1372 58.6695 49.0951 58.5476 49.0459 58.4296C48.7768 57.786 48.2095 57.5065 47.1754 57.502C46.1092 57.4975 45.4777 57.7688 45.2518 58.4228C44.9064 59.4236 44.9064 60.4416 45.2498 61.4431C45.4717 62.0896 46.1012 62.3751 47.1152 62.3781C48.1764 62.3811 48.8089 62.1061 49.0308 61.4491C49.1965 60.961 49.2336 60.4491 49.3059 60.0612V60.0619Z" fill="white"/>
<path d="M67.8546 45.3364H70.2049V48.4128H73.996V45.3349H76.3624V53.2096H74.0211V50.1348H70.216V53.2171H67.8526V45.3372L67.8546 45.3364Z" fill="white"/>
<path d="M34.9278 45.3327H37.2962C37.2962 45.4822 37.2962 45.6137 37.2962 45.7452C37.2962 47.2991 37.2942 48.853 37.2972 50.4068C37.2992 51.2387 37.6687 51.5706 38.768 51.6588C39.1736 51.6916 39.6064 51.664 40.005 51.5952C40.6836 51.4779 41.022 51.078 41.024 50.4554C41.03 48.8889 41.026 47.323 41.026 45.7565C41.026 45.6227 41.026 45.4896 41.026 45.3379H43.4145C43.4145 45.4829 43.4145 45.604 43.4145 45.7243C43.4145 47.2909 43.4185 48.8567 43.4135 50.4233C43.4075 52.2731 42.041 53.3113 39.5391 53.3247C38.8132 53.3285 38.0612 53.2941 37.3635 53.1581C35.9006 52.8733 35.0061 52.1094 34.9519 50.9951C34.8615 49.1228 34.9268 47.2461 34.9268 45.3319L34.9278 45.3327Z" fill="white"/>
<path d="M62.8326 63.8072V62.1449C63.2573 62.1838 63.6599 62.2406 64.0645 62.2533C64.9802 62.2825 65.8968 62.3049 66.8124 62.3004C67.2421 62.2981 67.6628 62.2032 67.7602 61.8213C67.8556 61.4483 67.5935 61.1987 67.1678 61.0425C66.2562 60.7069 65.3315 60.3915 64.4249 60.0499C63.3788 59.6553 62.672 59.0746 62.6097 58.1478C62.5254 56.8727 63.4491 56.0162 65.2512 55.9078C66.6699 55.8226 68.1066 55.8906 69.5654 55.8906V57.5939C68.4158 57.5655 67.2863 57.5244 66.1558 57.5155C65.7221 57.5117 65.2081 57.4669 65.0253 57.8907C64.9008 58.1784 65.1659 58.4475 65.8165 58.6911C66.709 59.0252 67.6427 59.3055 68.5062 59.677C69.9087 60.2794 70.3846 61.2084 69.9981 62.3781C69.7752 63.0515 69.1979 63.4783 68.3405 63.7108C67.2492 64.0067 66.1096 63.9963 64.9761 63.9686C64.2643 63.9514 63.5565 63.8655 62.8316 63.8087L62.8326 63.8072Z" fill="white"/>
<path d="M65.9852 45.3521V46.9964C65.3406 46.9635 64.7161 46.9164 64.0916 46.903C63.4421 46.8888 62.7865 46.8753 62.1429 46.9247C61.8999 46.9433 61.5335 47.116 61.4893 47.2625C61.4341 47.4441 61.5787 47.7349 61.7734 47.8671C62.0716 48.0697 62.4823 48.1833 62.8527 48.3238C63.5947 48.6056 64.3657 48.8492 65.0826 49.1624C66.6578 49.85 66.7783 51.1333 66.2603 52.1027C65.8095 52.9458 64.7784 53.2694 63.686 53.3031C62.2945 53.3457 60.8939 53.2343 59.4984 53.1745C59.405 53.1708 59.2474 53.0452 59.2434 52.9727C59.2203 52.5026 59.2313 52.0317 59.2313 51.5197C59.8167 51.5713 60.3538 51.6408 60.8939 51.6618C61.66 51.6909 62.43 51.7066 63.1961 51.6857C63.6117 51.6745 64.0565 51.5945 64.1659 51.2148C64.2784 50.8246 63.9973 50.572 63.5515 50.4106C62.7724 50.1273 61.9853 49.8568 61.2072 49.5727C60.9381 49.4748 60.6791 49.3597 60.4251 49.2409C59.2504 48.69 58.8217 47.9097 59.0938 46.8297C59.3016 46.0046 60.0687 45.4709 61.3949 45.3028C62.9079 45.1107 64.423 45.2004 65.9842 45.3521H65.9852Z" fill="white"/>
<path d="M26.1901 53.256V51.575C27.3648 51.6199 28.5244 51.67 29.684 51.7029C29.946 51.7103 30.2412 51.7043 30.4671 51.6221C30.709 51.5339 31.0303 51.3613 31.0574 51.2021C31.0916 50.9958 30.949 50.6939 30.7372 50.5623C30.3747 50.3373 29.9028 50.2088 29.4731 50.0458C28.7744 49.782 28.0525 49.5488 27.3768 49.2566C25.8357 48.5914 25.6941 47.4314 26.2072 46.3962C26.5043 45.7976 27.1881 45.4485 27.9922 45.3753C29.1448 45.2699 30.3155 45.2632 31.4791 45.2445C31.9409 45.237 32.4048 45.3088 32.8987 45.3469V46.9927C32.0694 46.9538 31.2602 46.9037 30.449 46.8828C29.9671 46.8701 29.4751 46.8708 29.0013 46.9269C28.7774 46.9531 28.4501 47.1025 28.4109 47.2356C28.3577 47.418 28.4551 47.6982 28.6318 47.826C28.9089 48.0263 29.2984 48.1452 29.6538 48.279C30.3968 48.56 31.1759 48.7932 31.8897 49.1093C33.2833 49.7267 33.7923 50.8 33.2702 51.9428C32.8224 52.9226 31.7211 53.2679 30.4892 53.3135C29.0806 53.3658 27.6639 53.2821 26.1881 53.256H26.1901Z" fill="white"/>
<path d="M19.9764 53.2201V46.9972H17.1994V45.3342H25.2624V46.977H22.4282V53.2201H19.9764Z" fill="white"/>
<path d="M36.9318 57.6537H34.0734V55.993H42.1666V57.638H39.3203V63.8625H36.9318V57.653V57.6537Z" fill="white"/>
<path d="M55.1793 45.3364H57.4985V53.2111H55.1793V45.3364Z" fill="white"/>
<path d="M16.094 45.3529C16.094 45.4844 16.094 45.6062 16.094 45.7281C16.094 48.0891 16.0859 50.4502 16.103 52.8113C16.105 53.1424 16.0056 53.2784 15.5257 53.2515C14.9484 53.2186 14.3661 53.244 13.7487 53.244V45.3536H16.094V45.3529Z" fill="white"/>
</g>
<defs>
<clipPath id="clip0_1_166">
<rect width="80.1835" height="64" fill="white" transform="translate(0.547241)"/>
</clipPath>
</defs>
</svg>
