<svg width="70" height="51" viewBox="0 0 70 51" fill="none" xmlns="http://www.w3.org/2000/svg">
<g clip-path="url(#clip0_1_190)">
<path d="M66.5287 20.4608C60.9961 25.0686 55.6092 29.5556 50.2223 34.0426C47.8297 36.0342 45.4735 38.0499 43.0171 39.9896C42.4611 40.428 41.5496 40.856 40.7931 40.8663C34.8912 40.9388 28.9848 40.9043 22.4222 40.9043C30.2974 33.9356 37.8581 27.2431 45.5419 20.4401C37.9675 13.7407 30.425 7.05846 22.6865 0.207151C23.3792 0.120862 23.8395 0.0173157 24.2998 0.0173157C29.6001 0.00696107 34.9004 -0.0171997 40.2006 0.0414765C41.0027 0.0518311 42.0418 0.296891 42.5568 0.717979C50.5277 7.22069 58.4257 13.7717 66.5287 20.4643V20.4608Z" fill="white"/>
<path d="M3.0988 27.6123C5.27724 25.0789 7.16856 22.8803 9.19205 20.5298C7.23692 18.2863 5.23622 15.991 2.98486 13.4092C6.01098 14.1065 8.65883 14.5552 11.1244 15.3318C13.2254 15.991 14.3693 15.5492 15.5041 14.21C16.8849 12.5809 18.5074 11.0691 20.54 9.52971C20.54 11.5834 20.6494 13.6439 20.499 15.6907C20.3987 17.0541 20.941 17.734 22.764 18.0861C25.5258 18.6211 28.2055 19.3839 31.4869 20.1881C28.3833 21.0889 25.7537 21.9725 23.0238 22.5973C21.1871 23.0183 20.5309 23.6603 20.6767 25.1238C20.8772 27.1464 20.7268 29.1897 20.7268 31.7059C18.5302 29.5763 16.6252 27.8436 14.8979 26.0143C14.0913 25.1583 13.394 24.9995 12.086 25.3688C9.28775 26.1627 6.40292 26.7943 3.09424 27.6054L3.0988 27.6123Z" fill="white"/>
<path d="M47.4013 50.7757H44.6805V43.2996C46.385 43.2996 48.1077 43.2133 49.8076 43.3238C51.6124 43.4411 53.089 45.0703 52.0909 46.3956C50.8649 48.0248 51.6488 49.2328 52.5375 50.6341C48.5543 51.6523 49.2288 48.5977 47.4013 47.5416V50.7757Z" fill="white"/>
<path d="M60.7363 45.4051H56.3202C56.3065 45.5742 56.2974 45.7398 56.2837 45.909C57.1678 45.9435 58.0565 46.0194 58.9407 46.0091C60.7363 45.9918 61.0872 46.8305 60.9824 47.9281C60.873 49.0913 61.6068 50.6583 59.0364 50.8102C57.177 50.9206 55.2993 50.8309 53.3168 50.8309V48.829C54.9894 48.7703 56.5617 48.7185 58.1386 48.6633C58.1386 48.4666 58.1386 48.2698 58.1386 48.0731C57.2362 48.0731 56.3338 48.0765 55.4315 48.0731C52.8429 48.0593 53.2303 46.6407 53.1938 45.3981C53.1573 44.1936 53.4125 43.2168 55.4634 43.2616C57.1815 43.2996 58.9042 43.2685 60.7409 43.2685V45.4051H60.7363Z" fill="white"/>
<path d="M17.3133 47.0756C17.3133 47.759 17.564 48.5218 17.245 49.1086C16.894 49.7609 16.1512 50.572 15.3628 50.7411C14.1095 51.0104 12.6192 50.9827 11.3431 50.7377C10.6094 50.5962 9.67512 49.823 9.57941 49.2604C9.33331 47.8039 9.27862 46.2817 9.60676 44.8424C9.74348 44.2419 10.9421 43.6275 11.8353 43.3272C12.5964 43.0753 13.6173 43.2651 14.5242 43.2685C16.3608 43.2754 17.3042 43.9727 17.3316 45.3636C17.3407 45.9331 17.3316 46.5026 17.3316 47.0756C17.327 47.0756 17.3224 47.0756 17.3179 47.0756H17.3133ZM12.3093 48.7772C13.1889 48.722 13.8224 48.6806 14.4695 48.6391V45.4465H12.3093V48.7738V48.7772Z" fill="white"/>
<path d="M43.1447 43.2271V45.3602H38.8334C38.8197 45.5397 38.8106 45.7226 38.7969 45.9021C40.1824 45.9677 41.5633 46.0367 43.0946 46.1092V48.1352H38.7833L38.7696 48.6288C40.1915 48.7013 41.6089 48.7738 43.1265 48.8497V50.8343C40.8888 50.5202 37.8125 51.8491 36.614 49.9542C35.6068 48.363 35.5931 45.8952 36.5137 44.2557C37.6576 42.2193 40.7976 43.6379 43.1447 43.2271Z" fill="white"/>
<path d="M68.9943 50.9206C66.6609 50.4685 63.5664 51.856 62.4818 49.9059C61.5657 48.256 62.0078 46.047 62.4225 44.159C62.6549 43.1063 64.4278 43.0304 69.008 43.4066V45.2773C68.256 45.305 67.5222 45.3222 66.7885 45.3567C66.1003 45.3878 65.4122 45.4361 64.724 45.4775C64.724 45.6363 64.7194 45.7916 64.7149 45.9504C66.1231 45.9987 67.5359 46.0436 69.0444 46.0954V48.0627H64.7103C64.6967 48.2388 64.6784 48.4182 64.6648 48.5943C66.0502 48.684 67.4402 48.7703 68.9897 48.8704V50.9206H68.9943Z" fill="white"/>
<path d="M23.7575 45.4258H21.4241V50.7411C20.4671 50.7791 19.6877 50.8102 18.7444 50.8481V43.2858C20.4032 43.2858 22.0485 43.234 23.68 43.2996C25.421 43.3686 26.2139 44.235 26.2641 45.4568C26.3324 47.1619 26.2823 48.867 26.2823 50.7101C25.462 50.7653 24.7465 50.8102 23.7575 50.8757V45.4223V45.4258Z" fill="white"/>
<path d="M26.3871 43.3686C31.2362 42.806 29.0623 46.406 31.2453 47.3862C31.7785 46.1264 32.3345 44.8079 32.9316 43.3824H35.6569C34.6451 45.8814 33.6744 48.2664 32.7128 50.6376C30.6042 50.9436 29.2507 50.3465 28.6521 48.8462C27.9275 47.0549 27.1801 45.2739 26.3917 43.3652L26.3871 43.3686Z" fill="white"/>
<path d="M8.21676 43.2306V45.2601C6.83131 45.3188 5.43674 45.3774 3.88267 45.4465V48.7013H8.16663V50.8757C5.87425 50.4581 2.77522 51.9112 1.58574 49.8506C0.665141 48.256 0.656027 45.8779 1.57206 44.2833C2.74332 42.24 5.85602 43.631 8.21676 43.2306Z" fill="white"/>
</g>
<defs>
<clipPath id="clip0_1_190">
<rect width="68.156" height="51" fill="white" transform="translate(0.893005)"/>
</clipPath>
</defs>
</svg>
