<svg width="117" height="25" viewBox="0 0 117 25" fill="none" xmlns="http://www.w3.org/2000/svg">
<g clip-path="url(#clip0_1_206)">
<path d="M0.174332 8.99501C0.174332 8.6292 0.174332 8.26339 0.174332 7.89474C0.243792 7.86071 0.342499 7.83802 0.371746 7.78981C0.912808 6.93625 1.83042 6.62148 3.01125 6.67253C3.80091 6.80014 4.33831 7.19147 4.77701 7.68489C5.45699 8.45338 6.13698 9.22187 6.81696 9.98752C7.18254 10.3987 7.54447 10.8099 7.91005 11.2211C8.13305 11.4791 8.3524 11.7343 8.57541 11.9924C10.3339 13.9944 12.096 15.9936 13.8544 17.9957C14.4138 18.6281 14.9731 19.2604 15.5361 19.8956C15.569 19.9297 15.5982 19.9665 15.6311 20.0006C16.2088 20.7237 16.8887 21.3164 18.1427 21.1604C19.0164 21.0214 19.5136 20.5394 19.9377 19.9892C20.2375 19.6489 20.5409 19.3086 20.8407 18.9712C21.1295 18.6422 21.4147 18.3133 21.7035 17.9843C22.2847 17.3236 22.8697 16.6629 23.4509 16.0022C24.0066 15.3698 24.566 14.7346 25.1217 14.1022C25.3081 13.9009 25.5019 13.7052 25.6773 13.501C27.2969 11.6323 28.9091 9.7635 30.525 7.89474C30.748 7.66788 30.971 7.44385 31.1976 7.21699C31.9398 6.72074 32.7879 6.56761 33.7421 6.74909C34.4952 6.99297 34.9851 7.43535 35.3141 7.99966C35.5115 8.73696 35.2044 9.38634 34.7109 9.99887C34.3928 10.3562 34.0748 10.7135 33.7531 11.0708C33.4716 11.3799 33.1901 11.689 32.9086 11.9981C32.3346 12.6616 31.7606 13.328 31.183 13.9916C30.5944 14.658 30.0058 15.3216 29.4172 15.988C27.6807 17.9872 25.9406 19.9864 24.204 21.9856L23.429 22.7768C22.9574 23.1483 22.4895 23.5197 22.0179 23.8884C21.6267 24.0869 21.2392 24.2854 20.848 24.4839C19.9852 24.6569 19.1261 24.8299 18.2633 25C17.4079 24.9234 16.5488 24.8469 15.6933 24.7703C13.8105 24.2117 12.4652 23.1653 11.3538 21.9034C10.7872 21.2596 10.2096 20.6188 9.6356 19.9779C9.0726 19.337 8.5096 18.6961 7.94661 18.0524C7.95026 18.0212 7.93564 17.9985 7.89908 17.9843C7.31049 17.3179 6.72191 16.6515 6.13332 15.9823C5.87376 15.6846 5.61054 15.3868 5.35097 15.0862C5.03292 14.7204 4.71486 14.3546 4.39315 13.9916C3.85574 13.3848 3.31468 12.7751 2.77728 12.1682C2.72609 12.1087 2.67857 12.0491 2.62739 11.9896C1.80483 10.9942 0.98958 9.99319 0.174332 8.99501Z" fill="white"/>
<path d="M40.3518 0C40.6114 0 40.8673 0 41.1268 0C41.2621 0.124773 41.3864 0.255218 41.5326 0.371484C42.3844 1.04923 43.2399 1.72414 44.0954 2.39905C44.1356 2.55501 44.1721 2.71098 44.2124 2.86695C44.1904 2.90948 44.1685 2.94918 44.1429 2.99172C44.1246 3.02575 44.11 3.05694 44.0917 3.09097C43.7408 3.39156 43.3898 3.68931 43.0388 3.9899C42.527 4.38975 42.0152 4.78959 41.507 5.18943C40.6004 5.62046 40.392 5.60061 39.6243 5.02495C39.394 4.85197 39.1564 4.6875 38.9224 4.52019C38.6811 4.34154 38.4362 4.16289 38.1949 3.98707C38.0523 3.86797 37.9134 3.74319 37.7671 3.62693C36.908 2.96053 36.8861 2.71665 37.6063 1.99921C38.045 1.66175 38.4873 1.3243 38.926 0.986842C39.4013 0.655059 39.8765 0.328947 40.3518 0Z" fill="white"/>
<path d="M116.188 17.6923C115.848 18.4579 115.508 19.2236 115.168 19.9892C114.214 21.3561 112.927 22.4989 111.282 23.3921C110.847 23.5878 110.412 23.7835 109.977 23.9791C109.549 24.1181 109.125 24.2542 108.697 24.3931C107.787 24.5548 106.877 24.7136 105.966 24.8752C105.846 24.8809 105.722 24.8866 105.601 24.8951C101.459 24.8951 97.3168 24.9064 93.1748 24.8951C92.3193 24.8951 91.4638 24.8242 90.6084 24.7845C89.7931 24.6172 88.9742 24.4499 88.159 24.2826C87.8629 24.1805 87.5704 24.0784 87.2743 23.9791C86.6674 23.6757 86.0605 23.3723 85.4537 23.066C84.0681 22.1642 82.9568 21.0923 82.1123 19.8559C81.8381 19.2661 81.5602 18.6791 81.286 18.0893C81.1544 17.0571 81.0228 16.0248 80.8949 14.9955C80.9058 14.8622 80.9168 14.7289 80.9241 14.5956C81.2202 13.6967 81.5164 12.7978 81.8125 11.896C83.0737 9.66425 85.1722 8.07339 88.0237 7.0667C89.1497 6.84551 90.2757 6.62432 91.398 6.40597C91.6503 6.39746 91.9062 6.38895 92.1585 6.38328C96.6405 6.38328 101.119 6.38328 105.601 6.38612C106.632 6.55059 107.663 6.71506 108.694 6.87954L111.282 7.88907C111.359 7.92877 111.436 7.96847 111.516 8.00817C112.295 8.57532 113.077 9.14247 113.856 9.70962C113.947 9.80604 114.042 9.90245 114.134 9.99887C114.645 10.7305 115.157 11.465 115.669 12.1966C116.484 13.9944 116.645 15.8292 116.188 17.7008V17.6923ZM110.244 11.9924C109.732 11.6181 109.22 11.2438 108.705 10.8723C107.93 10.6114 107.155 10.3477 106.383 10.0868C105.429 10.0301 104.475 9.97335 103.521 9.91663C103.389 9.91663 103.261 9.9223 103.13 9.92514C101.196 9.92514 99.2617 9.9223 97.3278 9.91947C96.9805 9.91947 96.6332 9.91947 96.2859 9.91947C96.114 9.91947 95.9422 9.91379 95.7704 9.91379C95.5986 9.91379 95.4231 9.91379 95.2513 9.91096C94.0851 9.93648 92.9189 9.96484 91.7527 9.99036C91.3688 10.0556 90.9849 10.118 90.5974 10.1832C88.2284 10.5859 86.1702 12.276 85.7132 14.1901C85.6584 14.8282 85.6072 15.4662 85.5524 16.1014C85.7681 16.7678 85.9801 17.437 86.1958 18.1034C86.7442 18.7046 87.2962 19.3086 87.8446 19.9098C87.9396 19.975 88.0383 20.0403 88.1334 20.1055C88.956 20.4486 89.7749 20.7917 90.5974 21.1349C90.9813 21.1859 91.3651 21.237 91.749 21.2908C92.2279 21.3135 92.7105 21.3362 93.1894 21.3589C93.533 21.3589 93.8767 21.3589 94.2203 21.3617C95.5986 21.3617 96.9768 21.3617 98.3551 21.3589C98.6987 21.3589 99.0424 21.3589 99.386 21.3617C100.073 21.3617 100.757 21.3617 101.444 21.3617C101.792 21.3617 102.139 21.3617 102.486 21.3617C102.526 21.3617 102.57 21.3617 102.61 21.3617C102.698 21.3617 102.79 21.3617 102.877 21.3589C103.784 21.3362 104.691 21.3135 105.597 21.2908C105.765 21.2738 105.93 21.2596 106.098 21.2426C108.485 20.8655 110.218 19.8645 111.15 18.0893C112.116 16.3708 112.075 14.6694 111.019 12.9821C110.931 12.8516 110.84 12.7212 110.752 12.5907C110.58 12.3922 110.408 12.1909 110.236 11.9924H110.244Z" fill="white"/>
<path d="M64.6082 24.9688C63.9392 24.9688 63.2665 24.9688 62.5975 24.9716C61.6031 24.6682 60.6087 24.3648 59.6143 24.0642C59.5668 24.0358 59.5193 24.0103 59.4718 23.982C58.6529 23.2872 57.8339 22.5953 57.015 21.9005C55.8781 20.5961 54.7448 19.2916 53.6078 17.9872C53.0192 17.3236 52.4306 16.6601 51.8421 15.9936C51.2608 15.3272 50.6795 14.6637 50.1019 13.9973C49.8277 13.691 49.5535 13.3819 49.2793 13.0757C48.9832 12.7382 48.6834 12.3979 48.3873 12.0605C48.3873 12.0293 48.3727 12.0066 48.3361 11.9952C47.7914 11.3855 47.2467 10.7759 46.702 10.1662C46.6544 10.1066 46.6069 10.0499 46.5594 9.99036C46.0988 9.375 45.7186 8.7483 45.9489 8.00533C46.2011 7.70758 46.4497 7.40982 46.702 7.11207C47.4916 6.68671 48.3434 6.54775 49.2757 6.78029C49.7875 7.1858 50.2993 7.59131 50.8111 7.99683C51.1621 8.39383 51.5094 8.788 51.8603 9.18501C52.1053 9.45724 52.3466 9.73231 52.5915 10.0045C54.3353 11.9981 56.0792 13.9916 57.823 15.9851L59.5997 17.9957C60.17 18.6593 60.7403 19.32 61.3106 19.9836C61.6068 20.2473 61.9029 20.511 62.199 20.7747C63.1093 21.3674 64.1731 21.3419 64.7873 20.7067C65.0798 20.4656 65.3723 20.2246 65.6647 19.9836C66.235 19.3228 66.809 18.6621 67.3793 18.0042C67.9752 17.335 68.5711 16.6629 69.167 15.9936C70.9218 13.9944 72.6766 11.9924 74.4314 9.9932C74.658 9.72947 74.8884 9.46858 75.115 9.20486C75.4587 8.80218 75.8023 8.3995 76.146 7.99683C76.6651 7.59698 77.1806 7.19714 77.6997 6.7973C78.6209 6.57895 79.4837 6.65835 80.2697 7.1064C80.522 7.40415 80.7742 7.70474 81.0265 8.0025C81.2129 8.73696 80.9424 9.38918 80.4086 9.99036C80.3611 10.0471 80.3099 10.1066 80.2624 10.1633C79.6994 10.8014 79.1328 11.4394 78.5698 12.0803C78.2773 12.4149 77.9848 12.7495 77.6924 13.0813C77.4291 13.3819 77.1659 13.6825 76.9027 13.9831C76.3105 14.6552 75.7182 15.3244 75.126 15.9965C74.5411 16.6601 73.9561 17.3236 73.3712 17.9872C72.2306 19.2916 71.09 20.5932 69.9457 21.8977C69.1633 22.5896 68.381 23.2844 67.5986 23.9763C67.5621 23.9933 67.5255 24.0103 67.4853 24.0245C67.4524 24.0472 67.4232 24.067 67.3903 24.0897L67.3647 24.1067C66.4471 24.3932 65.5331 24.6824 64.6155 24.9688H64.6082Z" fill="white"/>
<path d="M41.518 24.8922C40.5712 25.0936 39.7011 24.9858 38.926 24.4981C38.6774 24.2826 38.4252 24.0699 38.1766 23.8544C38.1766 23.8005 38.1802 23.7438 38.1839 23.6899C38.1729 23.5538 38.1656 23.4176 38.1547 23.2815C38.151 22.8477 38.1437 22.4138 38.14 21.9799C38.14 21.3135 38.14 20.65 38.14 19.9836C38.14 19.3171 38.14 18.6479 38.14 17.9815C38.14 17.3151 38.14 16.6515 38.14 15.9851C38.14 15.3187 38.14 14.6495 38.14 13.9831C38.14 13.3167 38.14 12.6531 38.14 11.9867C38.14 11.3203 38.1364 10.6511 38.1327 9.98468C38.1437 9.46291 38.1583 8.94113 38.1693 8.41935C38.1912 8.34278 38.2131 8.26905 38.2351 8.19249C38.2461 8.12443 38.2607 8.05637 38.2716 7.98831C38.4946 7.69907 38.714 7.40699 38.937 7.11774C39.6389 6.76327 40.3993 6.6073 41.2365 6.69238C42.187 6.94476 42.7975 7.44101 43.0498 8.19816C43.0608 8.29458 43.0717 8.39099 43.0827 8.48741C43.0754 9.6529 43.0608 10.8184 43.0608 11.9839C43.0644 15.5144 43.079 19.0449 43.0864 22.5754C43.0023 23.0433 42.9182 23.5112 42.8305 23.9791C42.3918 24.2797 41.9494 24.5831 41.5107 24.8837L41.518 24.8922Z" fill="white"/>
</g>
<defs>
<clipPath id="clip0_1_206">
<rect width="116.266" height="25" fill="white" transform="translate(0.174332)"/>
</clipPath>
</defs>
</svg>
